<svg xmlns="http://www.w3.org/2000/svg" xmlns:xlink="http://www.w3.org/1999/xlink" id="Layer_1" viewBox="0 0 1761.06 1377.38"><defs><style>.cls-1{fill:url(#linear-gradient);}.cls-2{fill:#e9e9ea;}.cls-3{fill:#223265;}.cls-4{fill:#223365;}.cls-5{fill:url(#_ÂÁ_Ï_ÌÌ_È_____ËÂÌÚ_10-3);}.cls-6{fill:url(#_ÂÁ_Ï_ÌÌ_È_____ËÂÌÚ_10-4);}.cls-7{fill:url(#_ÂÁ_Ï_ÌÌ_È_____ËÂÌÚ_10-2);}.cls-8{fill:url(#linear-gradient-2);opacity:.17;}.cls-9{fill:url(#linear-gradient-8);}.cls-10{fill:url(#linear-gradient-9);}.cls-11{fill:url(#linear-gradient-3);}.cls-12{fill:url(#linear-gradient-4);}.cls-13{fill:url(#linear-gradient-6);}.cls-14{fill:url(#linear-gradient-7);}.cls-15{fill:url(#linear-gradient-5);}.cls-16{fill:url(#_ÂÁ_Ï_ÌÌ_È_____ËÂÌÚ_5);}.cls-17{fill:url(#_ÂÁ_Ï_ÌÌ_È_____ËÂÌÚ_3);}.cls-18{fill:url(#_ÂÁ_Ï_ÌÌ_È_____ËÂÌÚ_11);}.cls-19{fill:url(#_ÂÁ_Ï_ÌÌ_È_____ËÂÌÚ_10);}.cls-20{fill:url(#_ÂÁ_Ï_ÌÌ_È_____ËÂÌÚ_15);}.cls-21{fill:url(#linear-gradient-14);}.cls-22{fill:url(#linear-gradient-18);}.cls-23{fill:url(#linear-gradient-20);}.cls-24{fill:url(#linear-gradient-15);}.cls-25{fill:url(#linear-gradient-19);}.cls-26{fill:url(#linear-gradient-16);}.cls-27{fill:url(#linear-gradient-17);}.cls-28{fill:url(#linear-gradient-13);}.cls-29{fill:url(#linear-gradient-12);}.cls-30{fill:url(#linear-gradient-10);}.cls-31{fill:url(#linear-gradient-11);}</style><linearGradient id="linear-gradient" x1="903.69" y1="1013.13" x2="903.69" y2="1033.49" gradientTransform="matrix(1, 0, 0, 1, 0, 0)" gradientUnits="userSpaceOnUse"><stop offset="0" stop-color="#d5e9f7"></stop><stop offset="1" stop-color="#a6cded"></stop></linearGradient><linearGradient id="linear-gradient-2" x1="-607.92" y1="-448.16" x2="-650.33" y2="176.77" gradientTransform="translate(-330.75 902.95) rotate(-176.85) scale(1.91 -1.92)" gradientUnits="userSpaceOnUse"><stop offset="0" stop-color="#d5ebf9"></stop><stop offset="1" stop-color="#a7ceee"></stop></linearGradient><linearGradient id="linear-gradient-3" x1="10787" y1="595.57" x2="10585.05" y2="945.35" gradientTransform="translate(-10892.98 -1644.92) rotate(7.87) scale(1.07 1) skewX(-1.87)" xlink:href="#linear-gradient"></linearGradient><linearGradient id="linear-gradient-4" x1="4757.52" y1="-266.82" x2="4987.79" y2="-266.82" gradientTransform="translate(-4600.59 -131.38) rotate(12.09)" gradientUnits="userSpaceOnUse"><stop offset="0" stop-color="#2f5c90"></stop><stop offset="1" stop-color="#11274a"></stop></linearGradient><linearGradient id="_&#xC2;&#xC1;_&#xCF;_&#xCC;&#xCC;_&#xC8;_____&#xCB;&#xC2;&#xCC;&#xDA;_3" x1="-386.67" y1="1124.57" x2="-612.3" y2="1515.38" gradientTransform="translate(-662.92 -525.07) rotate(166.05) scale(1 -1)" gradientUnits="userSpaceOnUse"><stop offset="0" stop-color="#69a7db"></stop><stop offset=".25" stop-color="#65a2d7"></stop><stop offset=".54" stop-color="#5994cc"></stop><stop offset=".84" stop-color="#477db9"></stop><stop offset="1" stop-color="#3b6fae"></stop></linearGradient><linearGradient id="_&#xC2;&#xC1;_&#xCF;_&#xCC;&#xCC;_&#xC8;_____&#xCB;&#xC2;&#xCC;&#xDA;_15" x1="4866.42" y1="1013.13" x2="4866.42" y2="838.45" gradientTransform="translate(-4621.55)" gradientUnits="userSpaceOnUse"><stop offset="0" stop-color="#68a9dc"></stop><stop offset=".15" stop-color="#5d9bd1"></stop><stop offset=".47" stop-color="#4982bd"></stop><stop offset=".76" stop-color="#3e73b2"></stop><stop offset="1" stop-color="#3a6eae"></stop></linearGradient><linearGradient id="linear-gradient-5" x1="4774.31" y1="847.46" x2="4957.9" y2="847.46" gradientTransform="translate(-4621.55)" gradientUnits="userSpaceOnUse"><stop offset="0" stop-color="#d7edfa"></stop><stop offset="1" stop-color="#a7cfee"></stop></linearGradient><linearGradient id="linear-gradient-6" x1="4761.89" y1="829.9" x2="4971.27" y2="829.9" gradientTransform="translate(-4621.55)" gradientUnits="userSpaceOnUse"><stop offset="0" stop-color="#2f5b91"></stop><stop offset="1" stop-color="#00264c"></stop></linearGradient><linearGradient id="linear-gradient-7" x1="515.7" y1="778.2" x2="316.07" y2="977.83" gradientTransform="translate(301.42 94.82) rotate(-.05)" gradientUnits="userSpaceOnUse"><stop offset="0" stop-color="#2f5c91"></stop><stop offset="1" stop-color="#10274a"></stop></linearGradient><linearGradient id="linear-gradient-8" x1="237.39" y1="761.75" x2="498.07" y2="780.6" xlink:href="#linear-gradient-7"></linearGradient><linearGradient id="linear-gradient-9" x1="339.92" y1="674.77" x2="364.46" y2="746.61" xlink:href="#linear-gradient-7"></linearGradient><linearGradient id="_&#xC2;&#xC1;_&#xCF;_&#xCC;&#xCC;_&#xC8;_____&#xCB;&#xC2;&#xCC;&#xDA;_11" x1="290.23" y1="715.72" x2="420.81" y2="942.93" gradientTransform="translate(301.42 94.82) rotate(-.05)" gradientUnits="userSpaceOnUse"><stop offset="0" stop-color="#69a7db"></stop><stop offset=".01" stop-color="#67a5d9"></stop><stop offset=".23" stop-color="#548dc6"></stop><stop offset=".45" stop-color="#467cb8"></stop><stop offset=".7" stop-color="#3d72b0"></stop><stop offset="1" stop-color="#3b6fae"></stop></linearGradient><linearGradient id="_&#xC2;&#xC1;_&#xCF;_&#xCC;&#xCC;_&#xC8;_____&#xCB;&#xC2;&#xCC;&#xDA;_5" x1="225.18" y1="768.82" x2="485.87" y2="787.66" gradientTransform="translate(301.42 94.82) rotate(-.05)" gradientUnits="userSpaceOnUse"><stop offset="0" stop-color="#69a7db"></stop><stop offset=".29" stop-color="#66a3d8"></stop><stop offset=".54" stop-color="#5d98cf"></stop><stop offset=".78" stop-color="#4e86c0"></stop><stop offset="1" stop-color="#3b6fae"></stop></linearGradient><linearGradient id="linear-gradient-10" x1="367.36" y1="827.7" x2="343.68" y2="851.38" xlink:href="#linear-gradient-7"></linearGradient><linearGradient id="linear-gradient-11" x1="1377.13" y1="235.94" x2="950.17" y2="235.94" gradientTransform="matrix(1, 0, 0, 1, 0, 0)" gradientUnits="userSpaceOnUse"><stop offset="0" stop-color="#fbd5db"></stop><stop offset="1" stop-color="#ecafb9"></stop></linearGradient><linearGradient id="_&#xC2;&#xC1;_&#xCF;_&#xCC;&#xCC;_&#xC8;_____&#xCB;&#xC2;&#xCC;&#xDA;_10" x1="1455.74" y1="362.87" x2="1310.27" y2="362.87" gradientTransform="translate(-60.57)" gradientUnits="userSpaceOnUse"><stop offset="0" stop-color="#a0c4e6"></stop><stop offset=".32" stop-color="#9cc2e5"></stop><stop offset=".56" stop-color="#93bce2"></stop><stop offset=".77" stop-color="#83b1dd"></stop><stop offset=".97" stop-color="#6ca3d7"></stop><stop offset="1" stop-color="#68a1d6"></stop></linearGradient><linearGradient id="linear-gradient-12" x1="1401.57" y1="755.75" x2="1615.51" y2="766.54" gradientTransform="translate(594.22 -487.31) rotate(96.93) scale(1 -1)" gradientUnits="userSpaceOnUse"><stop offset="0" stop-color="#fcdbe2"></stop><stop offset="1" stop-color="#edb7c1"></stop></linearGradient><linearGradient id="linear-gradient-13" x1="721.36" y1="1033.4" x2="873.98" y2="1355.64" gradientTransform="translate(1384.61 -483.06) rotate(154.65) scale(1 -1)" gradientUnits="userSpaceOnUse"><stop offset="0" stop-color="#365d91"></stop><stop offset="1" stop-color="#082a47"></stop></linearGradient><linearGradient id="linear-gradient-14" x1="942.35" y1="1579.62" x2="984.15" y2="1430.39" gradientTransform="translate(1765.73 -303.86) rotate(176.11) scale(1 -1)" xlink:href="#linear-gradient-12"></linearGradient><linearGradient id="linear-gradient-15" x1="808.11" y1="1190.77" x2="392.16" y2="1430.92" gradientTransform="translate(1765.73 -303.86) rotate(176.11) scale(1 -1)" xlink:href="#linear-gradient-13"></linearGradient><linearGradient id="linear-gradient-16" x1="-7140.94" y1="849.06" x2="-6996.39" y2="849.06" gradientTransform="translate(8606.2 168.05) rotate(6.22)" gradientUnits="userSpaceOnUse"><stop offset="0" stop-color="#dbbbc2"></stop><stop offset="1" stop-color="#d9a1ab"></stop></linearGradient><linearGradient id="_&#xC2;&#xC1;_&#xCF;_&#xCC;&#xCC;_&#xC8;_____&#xCB;&#xC2;&#xCC;&#xDA;_10-2" x1="-7067.71" y1="842.12" x2="-6994.7" y2="1512.63" gradientTransform="translate(8606.2 168.05) rotate(6.22)" xlink:href="#_&#xC2;&#xC1;_&#xCF;_&#xCC;&#xCC;_&#xC8;_____&#xCB;&#xC2;&#xCC;&#xDA;_10"></linearGradient><linearGradient id="linear-gradient-17" x1="-7078.43" y1="103.71" x2="-7107.94" y2="305.91" gradientTransform="translate(8539.68 577.76) rotate(5.03)" xlink:href="#linear-gradient-11"></linearGradient><linearGradient id="linear-gradient-18" x1="-7346.56" y1="519.49" x2="-7999.29" y2="-5.05" gradientTransform="translate(8836.06 22.6) rotate(-.6)" xlink:href="#linear-gradient-11"></linearGradient><linearGradient id="_&#xC2;&#xC1;_&#xCF;_&#xCC;&#xCC;_&#xC8;_____&#xCB;&#xC2;&#xCC;&#xDA;_10-3" x1="-7587.92" y1="-1002.33" x2="-7637.55" y2="-757.41" gradientTransform="translate(9173.02 -255.85) rotate(-11.45)" xlink:href="#_&#xC2;&#xC1;_&#xCF;_&#xCC;&#xCC;_&#xC8;_____&#xCB;&#xC2;&#xCC;&#xDA;_10"></linearGradient><linearGradient id="linear-gradient-19" x1="13296.3" y1="914.93" x2="13025.01" y2="764.54" gradientTransform="translate(14317.61 243.15) rotate(-178.58) scale(1 -1)" gradientUnits="userSpaceOnUse"><stop offset="0" stop-color="#69a7db"></stop><stop offset="1" stop-color="#3b6fae"></stop></linearGradient><linearGradient id="linear-gradient-20" x1="13332.06" y1="-871.19" x2="13226.19" y2="-471.2" gradientTransform="translate(14285.97 278.64) rotate(176.17) scale(1 -.79)" xlink:href="#linear-gradient-19"></linearGradient><linearGradient id="_&#xC2;&#xC1;_&#xCF;_&#xCC;&#xCC;_&#xC8;_____&#xCB;&#xC2;&#xCC;&#xDA;_10-4" x1="945.81" y1="663.37" x2="977.78" y2="663.37" gradientTransform="translate(-133.37 116.5) rotate(-7.7) scale(1.13 1.01) skewX(-2.76)" xlink:href="#_&#xC2;&#xC1;_&#xCF;_&#xCC;&#xCC;_&#xC8;_____&#xCB;&#xC2;&#xCC;&#xDA;_10"></linearGradient></defs><rect class="cls-1" x="46.32" y="1013.13" width="1714.73" height="20.36"></rect><path class="cls-8" d="M157.29,620.95c60.6-15.07,132.05-38.21,148.8-99.43,14.05-51.37-19-103.08-23.91-156.13-4.99-53.96,22.21-109.77,67.46-138.37,45.24-28.6,106.36-28.64,151.52-.08,54.52,34.48,85.16,105.03,146.54,124.14,40.8,12.71,85.78-1.57,121.38-25.65,35.6-24.09,64.19-57.22,95.01-87.38,56.98-55.76,124.28-102.91,200.53-123.81,76.25-20.91,162.3-12.99,226.98,32.96,23.51,16.71,43.47,38.85,58.31,63.99,25,42.36,79.34,55.49,120.3,28.84,7.21-4.69,14.65-9.01,22.3-12.92,43.61-22.28,101.32-29.34,137.41,3.96,24.36,22.47,32.91,58.65,29.75,92.02-3.16,33.37-16.46,64.78-30,95.35-29.67,66.99-61.67,134.22-73,206.77-11.33,72.55,1.19,152.99,50.92,206.04,43.22,46.11,111.29,69.26,137.96,126.94,17.92,38.78,12.29,84.96-1.85,125.4-28.56,81.68-91.29,150.35-169.21,185.22-81.7,36.58-174.05,35.97-263.21,34.74-286.73-3.97-267.62-400.74-860.2-11.9-46.18,30.3-100.3-1.63-146.18-20.43-45.88-18.81-86.43-59.78-90.4-110.04-4.22-53.39,32.44-104.32,25.63-157.41-8.05-62.77-70.61-99.86-124.2-131.82-53.59-31.96-111.49-82.67-100.99-145.1,10.53-62.63,81.74-90.84,142.33-105.9Z"></path><g><path class="cls-11" d="M290.7,779.6c1.42-10.72,3.45-22.11,6.27-34.12-8.14-8.39-20.59-20.08-30.91-24.83-24.51-11.29-46.63-7.95-40.78-30.87,6.96-27.3,60.65-9.32,76.13,38.6,3.88-13.68,8.78-28.07,14.89-43.07-6.85-7.92-17.22-18.85-26.15-23.8-21.5-11.93-41.78-11.09-35-30.21,8.12-22.91,56.19-2.17,66.76,40.86,5.41-12.16,11.61-24.69,18.72-37.56-4.45-7.35-11.44-17.78-18.1-23.01-15.83-12.42-32.49-14.24-24.23-29.06,9.84-17.66,45.74,4.9,48.56,41.1,5.43-9.29,11.32-18.75,17.73-28.36-2.85-6.27-7.34-15-12.06-19.68-11.47-11.36-24.65-14.25-16.56-25.47,9.5-13.17,35.4,7.24,34.91,35.92,5.87-8.46,12.16-17.03,18.85-25.71-1.56-5.01-4.18-12.17-7.44-15.96-7.72-8.98-17.62-11.2-10.23-20.21,8.75-10.66,26.94,5.81,23.28,29,5.45-6.88,11.16-13.81,17.15-20.81,3.51-11.75,16.06-33.08,26.04-24.18,10.06,8.97-15.61,22.18-24.15,26.22-4.23,5.43-9.05,11.81-14.28,19.01,16.61-10.37,36.34-6.29,32.85,4.27-3.25,9.83-10.86,4.22-22.86,3.67-5.2-.23-13,1.87-18.09,3.47-5.09,7.3-10.44,15.27-15.91,23.82,27.2-14.66,59.6-3.37,51.56,10.75-6.8,11.93-15.87,2.63-32.16-1.23-6.94-1.64-17.85-1.01-25.2-.28-5.39,8.72-10.85,17.98-16.25,27.71,34.3-16.63,73.44-1.23,62.78,15.8-9.04,14.43-19.73,2.52-39.64-3-7.9-2.19-20.18-2.1-29.19-1.63-6.15,11.63-12.14,23.85-17.79,36.56,40.21-20.02,86.56-1.92,74.04,18.07-10.55,16.84-23.02,2.94-46.26-3.5-8.97-2.48-22.77-2.45-33.2-1.94-6.1,14.74-11.67,30.06-16.42,45.84,39.31-28.59,93.12-16.28,83.11,6.95-8.31,19.27-23.84,6.45-49.49,3.06-10.5-1.39-26.26,1-37.36,3.17-3.33,12.47-6.11,25.19-8.21,38.09,26.16-19.48,64.32-13,58.83,2.73-4.62,13.24-16.63,5.15-35.23,3.75-7.13-.54-17.33,1.31-25,3.05-3.46,25.72-4.11,52.09-.87,78.57l-1.51,.14c-3.2-15.78-6.71-42.96-3.35-78.93-6.92-5.35-17.34-12.66-25.39-15.05-19.16-5.7-34.86-.77-33.32-18.49,1.83-21.19,43.35-13.58,60.15,20.76Z"></path><path class="cls-12" d="M316.68,564.65c-.73-1.55-1.65-2.99-2.55-4.37-.32-.49-.64-1-1.01-1.58l-1.28-1.71c-.94-1.22-1.87-2.45-2.83-3.6l-8.31-10.4c-6.29-7.98-11.19-14.83-15.48-21.57-4.92-7.69-8.95-15.62-11.99-23.53-1.47-3.74-2.75-7.86-3.94-12.57-.41-1.79-.78-3.6-1.15-5.42-.52-2.53-1.06-5.15-1.72-7.71-1.19-4.76-2.58-9.01-4.2-12.98-1.85-4.48-4.12-8.66-6.11-12.16-4.76-8.14-10.32-15.33-16.56-21.37-6.5-6.35-13.86-11.6-21.84-15.61-3.67-1.93-7.86-3.6-12.5-4.99-3.88-.94-8.49-1.94-13.2-2.13-2.13-.18-4.37-.22-6.84-.09-1.91,.08-3.99,.26-6.56,.54-4.01,.71-8.67,1.62-12.9,3.47-9.13,3.48-16.3,10.19-19.73,18.55-.19,.64-.39,1.28-.6,1.92-.51,1.56-1.05,3.17-1.14,4.86l-.45,3.6v3.38c.18,4.51,.98,8.99,2.44,13.72,2.86,9.18,7.65,17.44,11.92,24.43,1.19,1.95,2.39,3.89,3.6,5.83,3.39,5.44,6.9,11.07,9.81,16.85l1.08,4.47c.14,.99,.2,1.99,.27,2.98,.04,.61,.08,1.2,.13,1.68,0,1.01-.1,2.03-.18,3.02-.04,.59-.09,1.19-.11,1.64l-.96,4.64-1.54,4.53-1.94,4.43-2.25,4.31-7.59,12.76-2.52,4.35-2.39,4.47-2.14,4.68-1.77,4.9-1.26,5.1-.57,4.96s0,.05-.02,.09v.12h0l-.03,.39c-.12,1.46-.23,2.99-.15,4.38,.1,1.72,.28,3.32,.59,4.89,.65,3.24,1.75,6.31,3.25,9.13,1.47,2.81,3.36,5.46,5.66,7.86l6.37,6.37c9.78,10.2,16.65,19.13,21.62,28.14,1.49,2.68,2.77,5.34,3.83,7.96,1.22,2.84,2.06,5.78,2.72,8.26,.77,3.37,1.17,6.1,1.3,8.57,.15,3.38,.02,6.11-.4,8.61-.37,2.64-1.08,5.42-2.13,8.27-.95,2.55-2.19,5.15-3.73,7.73-1.24,2.13-2.78,4.29-4.92,7.04l-2.85,3.27-3.11,3.15c-.13,.14-.23,.28-.33,.44-3.63,6.2-6.05,11.14-7.81,16.04-2.25,6.12-3.35,12.18-3.31,18.02,0,3.09,.33,6.18,.94,9.19,.1,.52,.21,1.04,.35,1.56l1.23,4.24c.3,1,.61,1.98,.96,2.99,2.2,5.72,5.2,11.08,8.95,15.98,3.62,4.5,8.04,8.65,13.12,12.34,4.31,3.09,9.39,5.88,15.54,8.57,9.86,4.14,20.89,6.94,33.75,8.55,4.97,.69,9.51,1.09,13.79,1.24,0,2.25,0,4.42,0,6.46v14.15c0,5.44,0,10.4,.01,14.94l-.4,24.08,4.62,.69-.49-24.67c.09-4.55,.17-9.51,.25-14.97l.22-14.14c.04-1.98,.08-4.19,.1-6.48,1.08,0,2.17,0,3.22-.05,4.7-.21,9.21-.82,13.38-1.81,5.96-1.41,11.43-3.66,16.25-6.71,4.99-3.05,9.4-7.32,12.79-12.36,3.27-4.94,5.58-10.72,6.66-16.69,1.02-5.53,1.27-11.56,.77-17.93-.42-5.51-1.49-11.26-3.29-17.58-1.66-5.77-3.77-11.35-6.28-16.57-1.87-7.06-2.78-12.92-2.88-18.35,.24-2.85,.44-5.69,.63-8.54,.34-4.95,.68-10.07,1.33-15.05,1.16-8.94,3.35-16.13,6.8-22.2,1.09-2.99,2.2-5.96,3.3-8.92,1.99-5.35,3.98-10.69,5.88-16.09,2.39-7.03,5.24-16.36,6-26.28,.67-9.88-1.12-19.11-5.18-26.61Zm-86.17-121.61c.07-.46,.14-.92,.23-1.36,.25-1.35,.42-2.7,.52-3.99l.08-1.02c.09-1,.18-1.99,.19-2.99l-.03-3.91c.02-.98-.1-1.93-.21-2.84-.05-.41-.09-.79-.14-1.34-.12-1.02-.26-2.09-.48-3.13,2.28,1.8,4.52,3.68,6.63,5.71,6.03,5.81,11.42,12.76,16.04,20.58,2.66,4.69,4.5,8.31,5.94,11.75,1.59,3.81,2.94,7.88,4.13,12.49,.66,2.48,1.2,5.04,1.72,7.54,.38,1.83,.78,3.69,1.23,5.56,.63,2.42,1.27,4.69,1.96,6.83-.09,.13-.16,.25-.18,.39,0,.03-.4,2.22-1.65,5.79-.64,1.83-1.45,4.07-2.43,6.59-.84,2.15-1.86,4.51-2.95,7.04l-.59,1.37c-1.45,3.33-2.98,6.61-4.54,9.76l-.52,1.04c-1.57,3.12-3.2,6.34-5.05,9.58-2.29,4.18-4.49,7.66-6.71,10.67-1.04,1.38-2.45,3.17-4.08,4.64-.9,.77-1.62,1.29-2.21,1.61l-.43,.21c-.19,.08-.46,.22-.61,.24-.04,0-.16,.04-.25,.08l-6.61-29.5c-1.07-4.28-2.25-8.48-3.37-12.6-.57-2.04-1.13-4.04-1.68-6.08l-2.48-8.95c-.53-1.92-1.16-3.78-1.79-5.63-.33-1.01-.66-1.99-.98-2.98l-3.05-9.17c1.27-1.83,2.5-3.76,3.72-5.88,1.34-2.26,2.57-4.61,3.69-6.93,1.06-2.26,2.2-4.68,3.09-7.22,.86-2.23,1.66-4.67,2.47-7.57l.9-3.79c.21-.85,.34-1.71,.49-2.56Zm-38.67-36.49c4.4,.16,8.8,1.09,12.46,1.95,4.43,1.32,8.33,2.87,11.93,4.73,3.99,2,7.8,4.31,11.44,6.92l.23,2.06c.19,1.14,.19,2.31,.21,3.65-.02,.52,0,1.04,.04,1.55,.02,.76,.06,1.48-.02,2.21l-.26,3.81c-.04,.72-.16,1.45-.29,2.17-.08,.52-.16,1.03-.23,1.57-.13,1.16-.34,2.37-.63,3.63-.11,.45-.22,.89-.3,1.35-.15,.77-.31,1.55-.54,2.3l-1.02,3.61-1.21,3.63c-.29,.92-.64,1.82-.98,2.72l-.3,.79c-.44,1.17-.93,2.31-1.42,3.46l-.34,.82c-.37,.89-.74,1.75-1.16,2.63-1.69,3.66-3.35,6.86-5.03,9.71l-.63-1.93-2.02-5.19c-3.17-8.15-6.16-15.85-9.42-22.47l-1.95-4.25-3.59-6.98c-.56-1.02-1.09-2.01-1.6-3-1.2-2.27-2.33-4.4-3.57-6.29-.61-.96-1.18-1.88-1.72-2.78-.97-1.62-1.92-3.13-2.86-4.46l-1.5-2.11c-.81-1.14-1.52-2.14-2.21-3.05l-2.07-2.53c4.38-.43,7.47-.48,10.58-.23Zm-42.02,45.18c-1.35-4.3-2.12-8.54-2.3-12.59l-.03-3.21,.42-3.24c.06-1.37,.49-2.66,.93-4.04,.22-.66,.43-1.34,.57-1.88,2.99-7.29,9.41-13.3,17.66-16.48,3.47-1.54,7.18-2.36,10.72-3.03l3.29,3.89c.63,.85,1.33,1.83,2.1,2.96l1.47,2.11c.88,1.26,1.77,2.73,2.71,4.32,.55,.92,1.11,1.85,1.73,2.85,1.17,1.79,2.24,3.88,3.39,6.08,.51,1.01,1.04,2.03,1.58,3.05l2.72,5.22,2.65,5.91c3.15,6.56,6.04,14.19,9.1,22.27l1.96,5.16,1.07,3.3-1.85,.02c-.86,.02-1.72-.05-2.57-.13-.51-.05-1.02-.09-1.52-.11-1.39-.07-2.78-.27-4.09-.48-.45-.06-.92-.12-1.39-.19-.9-.12-1.81-.23-2.73-.46l-4.1-.82-4.12-1.03c-1.12-.26-2.22-.58-3.32-.91l-1.85-.53c-.96-.27-1.93-.55-2.9-.88-2.94-.94-5.57-1.83-8.02-2.72-2.66-.97-5.32-1.95-7.94-3.01-4.94-2-9.3-3.92-13.32-5.86-.76-1.84-1.44-3.67-2.03-5.54Zm15.17,29.27c-1.21-1.93-2.42-3.85-3.6-5.78-3.17-5.15-5.82-9.87-8.01-14.56,3.31,1.66,6.85,3.33,10.77,5.07,6.37,2.78,11.31,4.74,15.98,6.31,.98,.38,1.99,.69,3,1l1.87,.6c1.13,.37,2.24,.72,3.39,1l4.17,1.15,4.17,.94c.97,.24,1.94,.4,2.92,.56,.46,.08,.91,.16,1.36,.23,1.36,.26,2.82,.49,4.35,.61,.49,.03,.98,.1,1.47,.15,.96,.11,1.92,.21,2.87,.22l3.23,.07,2.82,8.72c.3,1,.63,2.01,.97,3.03,.59,1.81,1.18,3.63,1.7,5.49l2.37,8.94c.59,2.26,1.21,4.54,1.81,6.83,1.04,3.87,2.08,7.79,3.07,11.74l6.09,28.15c-2.85-.55-5.84-1.41-8.8-2.57-1.27-.44-2.54-1.01-3.76-1.55-.71-.32-1.41-.64-2.07-.9l-5.64-2.79c-3.24-1.73-6.65-3.65-10.39-5.9-2.87-1.73-5.85-3.61-9.08-5.73-8.02-5.32-13.94-9.7-16.61-11.72l.25-.71,.12-.53c.31-1.51,.63-3.03,.94-4.66,.02-.57,.07-1.14,.12-1.71,.08-1.16,.18-2.33,.19-3.61-.05-.57-.09-1.16-.13-1.74-.09-1.17-.17-2.33-.35-3.58l-1.25-5.15s-.09-.23-.12-.26c-3.05-6.03-6.66-11.79-10.15-17.35Zm-12.6,100.93c-.26-1.29-.45-2.69-.54-4.16-.06-1.14,0-2.19,.07-3.28l.59-5.71,1.13-4.61,1.61-4.53,1.99-4.39,2.28-4.32,7.57-12.8,2.49-4.37,2.33-4.5c.45-1.02,.9-2.03,1.34-3.07l.71-1.64c.22-.66,.44-1.31,.66-1.97,2.84,2.29,8.41,6.64,15.8,11.86,3.18,2.2,6.13,4.18,9.03,6.06,3.14,2.02,6.65,4.12,10.47,6.26l5.71,2.99c.7,.32,1.38,.64,2.06,.97,1.28,.6,2.61,1.23,3.96,1.75,3.87,1.59,7.4,2.63,10.88,3.22,.24,1.32,.49,2.65,.71,3.97,.21,1.23,.42,2.46,.63,3.67l3.59,21.05c.94,4.92,1.58,10.04,2.19,14.98,.27,2.12,.53,4.26,.83,6.37l2.79,21.88-1.49-.26c-1.38-.28-2.76-.65-4.12-1.01-.78-.2-1.55-.41-2.35-.61-1.56-.35-3.14-.88-4.65-1.38l-1.68-.56c-2.35-.74-4.32-1.4-6.3-2.2l-2.24-.85c-1.35-.51-2.71-1.02-4.03-1.57l-6.22-2.64c-1.34-.56-2.63-1.18-3.95-1.79-.72-.34-1.45-.68-2.18-1.01-2.04-.94-4.07-1.89-6.08-2.92-4.15-2.02-8.22-4.14-12.03-6.15-4.24-2.29-8.05-4.36-11.85-6.59-7.75-4.44-14.53-8.56-20.72-12.58-.39-1.16-.75-2.34-1-3.57Zm36.64,50.11c-1.3-2.39-2.8-4.82-4.88-7.91-1.69-2.5-3.53-4.99-5.46-7.42-3.58-4.52-7.54-9-12.13-13.71l-6.38-6.34c-2-2.07-3.65-4.36-4.93-6.81-.09-.15-.14-.32-.22-.48,5.37,3.55,11.23,7.23,17.74,11.15,3.74,2.25,7.4,4.35,11.8,6.85,3.89,2.15,7.94,4.38,12.01,6.44,2.03,1.08,4.07,2.07,6.13,3.07,.72,.33,1.42,.68,2.15,1.04,1.33,.65,2.66,1.28,4.02,1.88l6.22,2.76c1.35,.58,2.73,1.12,4.1,1.67l2.21,.88c2.07,.86,4.14,1.58,6.46,2.36l1.68,.58c1.57,.54,3.2,1.1,4.85,1.51,.77,.2,1.53,.42,2.3,.64,1.43,.42,2.86,.82,4.34,1.12l2.79,.56,.12,.86,4.28,48.5,1.26,22.46c-.49-.15-.97-.3-1.45-.48l-1.49-.51c-.85-.26-1.66-.62-2.5-.97-.47-.21-.95-.4-1.42-.59-1.15-.45-2.37-1-3.86-1.74-.46-.21-.91-.44-1.37-.64-.83-.39-1.67-.78-2.49-1.24l-3.81-1.99-1.85-1.07c-1.91-1.06-3.79-2.13-5.65-3.26-4.76-2.83-9.52-5.9-14.61-9.41-4.76-3.27-8.95-6.32-12.78-9.24,.34-1.4,.61-2.77,.79-4.13,.47-2.78,.62-5.82,.45-9.55-.14-2.75-.59-5.76-1.43-9.46-.67-2.51-1.6-5.82-2.94-8.94-1.12-2.76-2.48-5.6-4.06-8.44Zm63.76,155.14c.08,1.86,.13,3.71,.16,5.51-4.13-.19-8.49-.62-13.28-1.34-6.48-.92-11.78-1.93-16.69-3.19-6.4-1.71-11.49-3.44-16.02-5.42-5.94-2.67-10.6-5.31-14.68-8.29-4.72-3.49-8.8-7.41-12.12-11.61-3.36-4.48-6.08-9.43-8.05-14.68-.28-.81-.53-1.64-.79-2.5-.15-.56-.34-1.12-.51-1.68l-.6-1.95-.16-.71c-.09-.39-.16-.75-.23-1.12,1.71,1.22,3.52,2.45,5.47,3.75,3.54,2.36,7.1,4.6,10.56,6.64,1.79,1.08,3.58,2.11,5.42,3.11l1.61,.89c1.28,.71,2.57,1.42,3.87,2.07l5.59,2.82,5.64,2.58c1.24,.57,2.51,1.08,3.78,1.58,.66,.25,1.33,.51,2.01,.79l2.92,1.18,2.95,.99c.69,.23,1.37,.47,2.05,.71,1.29,.44,2.58,.89,3.89,1.24l6,1.6c1.33,.34,2.68,.58,4.02,.82,.71,.12,1.41,.26,2.13,.4l1.06,.19c.68,.14,1.36,.27,2.07,.36l3.12,.29c.69,.05,1.37,.13,2.06,.2,1.29,.13,2.62,.29,3.98,.23h.24l2.08-.05,.45,14.57Zm-.58-18.91l-2.08,.08c-1.25,.13-2.47,0-3.79-.1-.71-.07-1.41-.14-2.08-.15l-3-.22c-.62-.08-1.25-.18-1.88-.29l-1.05-.16c-.7-.15-1.43-.26-2.14-.38-1.27-.2-2.54-.41-3.78-.69l-5.92-1.47c-1.25-.3-2.48-.71-3.71-1.1-.7-.25-1.41-.48-2.09-.67l-2.87-.92-2.86-1.08c-.69-.27-1.37-.53-2.06-.78-1.22-.46-2.42-.92-3.63-1.44l-5.61-2.43-5.59-2.66c-1.28-.58-2.52-1.24-3.78-1.89l-1.68-.89c-1.81-.91-3.61-1.9-5.4-2.92-3.46-1.92-7.03-4.04-10.6-6.31-2.64-1.66-5.04-3.24-7.29-4.8-.23-1.78-.4-3.57-.41-5.33-.04-5.27,.97-10.77,3.02-16.38,1.65-4.57,3.91-9.21,7.31-15.05l2.99-3.05,3.02-3.46c1.57-1.98,3.59-4.64,5.33-7.61,1.68-2.81,3.05-5.67,4.06-8.5,.34-.89,.63-1.8,.91-2.69,3.59,2.89,7.51,5.87,11.94,9.11,5.03,3.66,9.77,6.9,14.5,9.88,2.01,1.31,4.11,2.55,6.14,3.76l5.21,2.92c.85,.51,1.73,.94,2.6,1.37,.45,.22,.88,.43,1.32,.66,1.54,.8,2.82,1.42,4.03,1.91,.47,.19,.93,.4,1.38,.61,.9,.41,1.78,.81,2.7,1.12l1.48,.53c.88,.34,1.78,.67,2.73,.96l.13,.04,1.39,24.84,1.09,35.62Zm-4.17-140.28l-3.09-22.85c-.3-2.08-.58-4.19-.85-6.27-.66-5.03-1.34-10.22-2.33-15.24l-3.73-21.04c-.22-1.2-.42-2.4-.64-3.6-.18-1.01-.37-2.01-.55-3.02,.83-.16,1.71-.44,2.33-.78,1.25-.63,2.28-1.42,3.15-2.12,1.92-1.66,3.51-3.52,4.79-5.12,3.1-3.92,5.52-7.98,7.3-11.09,2.33-4.24,4.08-7.73,5.52-10.98,1.48-3.3,2.91-6.72,4.25-10.17,1.27-3.22,2.25-6.23,3.07-8.8,.81-2.54,1.47-4.89,1.95-6.96,.26-1.03,.44-1.95,.6-2.75,.23,.61,.45,1.22,.69,1.82,3.15,8.07,7.33,16.16,12.4,23.99,4.38,6.8,9.38,13.69,15.77,21.7l1.13,1.39-.77,6.43c-.11,1.52-.47,2.97-.86,4.53-.14,.54-.28,1.08-.4,1.62l-.34,1.49c-.38,1.61-.73,3.11-1.33,4.59l-.75,2.18c-.45,1.27-.89,2.57-1.36,3.78l-2.66,5.85c-.49,1.21-1.13,2.34-1.82,3.54-.37,.68-.76,1.33-1.09,1.99l-1.51,2.73-1.7,2.66c-.44,.62-.85,1.28-1.26,1.92-.7,1.11-1.44,2.25-2.26,3.32l-3.71,5.09-4.01,4.94c-.78,.98-1.62,1.92-2.46,2.85-.57,.63-1.13,1.26-1.69,1.91-1.03,1.22-2.12,2.37-3.22,3.51l-1.04,1.09c-2.77,2.91-5.72,5.78-9.04,8.78-2.3,2.07-5.32,4.7-8.46,7.11Zm56.62,95.95c1.69,6.17,2.69,11.76,3.05,17.09,.43,6.13,.13,11.89-.88,17.14-1.07,5.57-3.27,10.94-6.35,15.52-3.16,4.62-7.29,8.55-11.96,11.35-4.57,2.82-9.74,4.88-15.36,6.16-3.75,.85-7.79,1.37-11.98,1.56h0c-1.26,.06-2.55,.06-3.85,.06-.01-1.86-.03-3.76-.07-5.7l-.23-14.6c.07,0,.11,0,.17-.03,.19-.06,.43-.12,.48-.15,.22-.09,.4-.18,.71-.32,.39-.2,.75-.41,1.1-.62,.68-.41,1.34-.83,1.98-1.27,1.28-.85,2.51-1.74,3.74-2.66,2.33-1.75,4.65-3.61,7.13-5.69,5.12-4.44,9.42-8.56,13.14-12.64,5.03-5.49,8.53-9.96,11.35-14.49,1.35-2.19,3.08-5.11,4.29-8.36,1.12-2.99,1.67-5.66,1.74-8.14,.64,1.89,1.26,3.83,1.81,5.79Zm-6.99-59.52c-.66,5.06-1,10.21-1.31,15.19-.19,2.85-.38,5.69-.63,8.61,.05,5.79,.96,11.88,2.92,19.41,1.25,2.64,2.37,5.36,3.39,8.18-.1-.04-.21-.08-.33-.08-.49,.02-1.01,.55-1.04,1.07-.09,2.51-.84,5.2-2.29,8.23-1.26,2.59-2.78,5.13-4.5,7.53-3.2,4.45-6.98,8.86-11.51,13.46-4.37,4.38-8.77,8.44-13.05,12.08-2.44,2.11-4.68,3.95-6.84,5.62-1.16,.9-2.32,1.8-3.52,2.63-.59,.43-1.16,.82-1.74,1.18l-.29,.17-.29-18.37c-.08-5.46-.17-11.11-.4-16.85l-1.34-23.59c2.07-.22,3.6-1.22,4.94-2.12l.34-.25c1.57-1.12,2.95-2.41,4.29-3.65,2.87-2.77,5.49-5.76,7.45-8.06,4.53-5.36,8.97-11.2,13.19-17.31,4.35-6.29,8.39-12.78,11.75-18.31,.82-1.4,1.68-2.86,2.56-4.38-.76,2.98-1.34,6.17-1.77,9.61Zm21.76-73.36c-.71,9.62-3.48,18.76-5.8,25.64-1.89,5.37-3.86,10.71-5.84,16.04-.72,1.96-1.42,3.89-2.14,5.84-.13,.07-.25,.18-.31,.28-3.7,5.99-7.64,12.09-11.73,18.14-4.1,6.24-8.59,12.61-12.19,17.7l-.33,.47c-4.01,5.57-8.15,11.33-12.46,16.72-1.83,2.27-4.27,5.21-6.95,7.92-1.31,1.29-2.51,2.44-3.79,3.4-1.31,.98-2.39,1.56-3.19,1.75l-1.38-24.07-4.69-48.31c.2-.06,.37-.15,.55-.28,3.71-2.63,7.06-5.43,10.14-8.07,3.8-3.33,6.79-6.13,9.42-8.83l1.05-1.08c1.16-1.19,2.33-2.37,3.41-3.63,.44-.49,.88-.98,1.34-1.48,.99-1.09,2.01-2.21,2.93-3.4l4.07-5.1,3.75-5.27c.84-1.16,1.59-2.42,2.32-3.62,.38-.65,.77-1.29,1.19-1.94l1.71-2.83,1.51-2.91c.33-.68,.69-1.35,1.04-2.01,.66-1.25,1.35-2.53,1.86-3.89l2.49-6.12c.46-1.34,.86-2.72,1.27-4.11l.63-2.13c.62-1.83,.96-3.72,1.29-5.58l.18-.96c.08-.55,.18-1.09,.28-1.64,.28-1.6,.58-3.27,.58-4.95l.21-4.11,5.2,6.43c.96,1.14,1.85,2.31,2.76,3.48l1.26,1.63c.32,.5,.65,1,.99,1.51,.88,1.37,1.73,2.67,2.41,4.12,3.88,7.08,5.6,15.82,4.97,25.24Z"></path><path class="cls-17" d="M16.93,544.57c28.06-11.99,51.08-10.21,65.92-8.09-6.62-8.99-12.98-17.18-18.88-24.55-30.19,5.17-51.29-4.12-63.97-4.03,24.15-7.32,44.97-5.63,58.37-2.87-6.01-7.3-11.39-13.59-15.95-18.78-23.47-8.99-28.88-28.7-36.55-34.8,31.37,7.54,40.26,32.72,41.32,36.05,5.35,5.62,10.52,11.22,15.51,16.78,2.1-11.84,7.72-30.2,22.78-47.96-4.41,10.17-4.07,30.42-18.43,52.84,7.08,8.06,13.8,16.05,20.15,23.97,3.75-13.39,10.69-35.22,33.63-54.7-6.93,11.12-9.86,35.2-30.5,58.66,7.51,9.51,14.52,18.93,21.04,28.23,4.89-16.33,13.85-43.05,42.27-67.27-8.74,13.71-12.85,43.19-38.82,72.28,7.49,10.94,14.34,21.7,20.57,32.27,5.83-18.96,16.55-49.41,49.13-77.21-10.2,15.89-15.19,49.91-45.38,83.66,7.1,12.45,13.35,24.59,18.86,36.43,.04-1.04-.09-2.01-.99-2.78,9.17-18.52,25.34-49.65,65.47-73.19-13.49,14.78-24.64,50.01-62.82,79.59,6.88,15.11,12.57,29.65,17.22,43.52,11.51-19.18,31.54-50.49,75.11-77.42-15.52,15.83-30.44,51.03-72.94,84.07,5.52,17.37,9.45,33.66,12.19,48.64,12.04-15.94,32.68-41.49,73.09-62.96-15.16,12.96-31.66,42.14-72.04,69.01,2.72,16.34,4.01,31.02,4.47,43.78,11.41-11.78,30.34-29.79,63.37-45.99-13.23,9.62-29.16,30.38-63.1,50.74,.1,.28,.17,.59,.19,.95-.11,0-.21,0-.31,0,.29,16.74-.84,29.71-1.94,38.18-.36-.06-.72-.11-1.07-.16,.62-12.8,.43-25.48-.43-38.03-29.61-.41-49.86-17.96-62.42-20.67,28.04-5.89,49,5.58,61.85,13.51-1.24-13.86-3.3-27.55-6.06-41-44.18,2.09-73.09-14.61-91.48-16.55,41.96-7.75,72.07,2.93,90.1,10-3.51-15.87-7.96-31.4-13.11-46.49-43.9,5.49-74.14-8.77-92.71-9.19,40.68-11.02,71.42-3.38,90.28,2.23-5.14-14.3-10.87-28.18-17.01-41.59-43.69,10.16-75.52-1.27-94.19,.12,40.23-15.25,72.08-10.12,91.28-6.32-5.76-12.13-11.83-23.84-18.07-35.06-40.38,10.52-70.58,1.2-88.11,3.25,35.93-15.34,65.38-12.91,84.21-10.17-6.38-11.13-12.9-21.76-19.4-31.8-35.32,9.65-61.73,1.46-76.95,3.23,31.73-13.54,57.54-10.88,73.53-8.46-6.22-9.43-12.4-18.32-18.39-26.61-32.03,8.44-55.99,1.08-69.87,2.7Z"></path><g><path class="cls-20" d="M157.25,854.92l20.01,148.48c.76,5.55,6.02,9.73,12.26,9.73h107.37c6.16,0,11.38-4.08,12.23-9.55l23.33-152.58c1.03-6.78-4.98-12.75-12.61-12.55l-150.72,4.1c-7.25,.19-12.75,5.92-11.88,12.37Z"></path><path class="cls-15" d="M158.72,835.46h171.65c3.28,0,5.97,2.74,5.97,6.09v11.82c0,3.35-2.68,6.09-5.96,6.09H158.72c-3.28,0-5.96-2.74-5.96-6.09v-11.82c0-3.34,2.68-6.08,5.96-6.08Z"></path><path class="cls-13" d="M344.26,837.41H145.8c-3.01,0-5.46-2.52-5.46-5.59v-3.85c0-3.08,2.45-5.59,5.47-5.59h198.45c3,0,5.46,2.51,5.46,5.58v3.86c0,3.07-2.46,5.59-5.46,5.59Z"></path></g></g><g><g><path class="cls-14" d="M790.46,853.06c0-10.31-8.36-18.65-18.67-18.65h-18.24v178.58h18.39c10.3-.03,18.64-8.38,18.64-18.68l-.11-141.25Z"></path><path class="cls-9" d="M797.11,830.4c0-8.83-7.17-15.98-16-15.98l-27.56,.02v116.38l27.65-.02c8.83,0,15.99-7.17,15.98-16l-.06-84.4Z"></path></g><g><path class="cls-10" d="M617.08,824.89v-13.27c-.02-13.08,10.62-23.73,23.69-23.74l33.4-.03c13.07-.01,23.72,10.62,23.73,23.7l.02,13.28,15.98-.02v-13.27c-.03-21.9-17.85-39.7-39.74-39.69l-33.4,.03c-21.9,.01-39.7,17.84-39.68,39.74v13.28h16Z"></path><path class="cls-18" d="M760.1,834.42l-205.21,.16c-10.3,0-18.65,8.37-18.64,18.67l.11,141.25c0,10.3,8.36,18.65,18.67,18.64l205.21-.15c10.3-.01,18.64-8.37,18.64-18.67l-.11-141.25c0-10.31-8.36-18.65-18.67-18.65Z"></path><path class="cls-16" d="M769.42,814.43l-223.87,.18c-8.83,0-15.98,7.17-15.98,16l.07,84.39c0,8.83,7.17,15.99,16,15.98l223.86-.17c8.83,0,15.99-7.17,15.98-16l-.06-84.4c0-8.83-7.17-15.98-16-15.98Z"></path><path class="cls-30" d="M657.57,914.89c-6.11,0-11.11,5.01-11.1,11.11v15.99c.02,6.11,5.02,11.1,11.13,11.09,6.11,0,11.1-5,11.09-11.11v-15.99c-.02-6.11-5.02-11.1-11.12-11.1Z"></path></g></g><g><path class="cls-31" d="M1357.6,300.39c-33.52-6.45-144.97-29.52-318.87-168.63-1.1-1.14-1.74-1.81-1.74-1.81,0,0,4.07-12.83-22.83-34.45-10.67-12.16-29.21-23.89-29.21-23.89,0,0-27.99-20.94-33.17-16.92-7.22,5.6,11.5,25.26,23.65,38.85-14.1,16.95-22.3,56.44,32.27,70.03,.8,.2,48.39,73.77,155.95,152.03,30.45,22.16,133.63,86.47,189,101.7,20.55,5.65,22.66-44.92,24.1-66.19,1.5-22.24-.6-47.13-19.14-50.7Z"></path><path class="cls-19" d="M1437.68,291.4s-24.77,49.02-25.18,62.75c-1.8,60.54-1.24,62.88-6.06,92.26-2.21,13.48-158.99-59.86-155.11-68.92,17.29-40.35,29.32-90.35,34.07-99.83,61.24,1.29,83.62,3.8,152.28,13.73Z"></path><path class="cls-29" d="M1150.83,993.38s86.69,110.09,91.36,120.59c9.82,22.1-17.29,80.61-36.23,95.44-18.94,14.83,2.08-47.1,3.4-73.6,.85-17.09-116.4-86.66-116.4-86.66l57.87-55.77Z"></path><path class="cls-28" d="M1407.81,768.31s-402.44-26.29-453.45,13.23c-21.2,16.43-44.39,43.45-33.87,86.25,12.98,52.88,117.38,174.45,247.58,244.84,5.76,12.15,37.25-6.68,49.69-42.95,8.96-26.13-100.06-150.9-100.06-150.9,0,0,114.38,73.28,218.13,40.07,103.76-33.22,116.83-179.92,71.97-190.54Z"></path><path class="cls-21" d="M1041.09,1207.31s-135.19,134.67-146.15,140.58c-25.46,13.7-85.82,30.78-105.45,13.66-19.63-17.13,53.5-15.24,78.52-37.6,13.82-12.35,92.69-162.18,92.69-162.18l80.39,45.55Z"></path><path class="cls-24" d="M1607,824.8c-2.71,35.85-22.86,90.86-38.01,126.65-34.51,81.5-188.79,75.79-415.93,84.86-27.12,3.24,2.59,95.35-211.8,274.14-51.46-2.94-59-21.89-59-21.89,0,0,133.21-323.97,172.99-364.48,39.76-40.51,302.74-99.13,321.87-95.7,4.39,.78,34.84-48.51,56.77-56.74,45.79-17.19,126.9,.16,163.04,8.32,10.48,2.37,11.69,23.38,10.06,44.84Z"></path><g><path class="cls-3" d="M1202.75,1124.74s-31.83,81.47-19.1,95.88c20.34,23.03,82.84-87.94,77.91-109.97-4.74-21.14-33.17-17.74-33.17-17.74,0,0,3.97,21.25-25.64,31.84Z"></path><path class="cls-2" d="M1202.42,1132.85s10.55-3.32,19.18-1.08c4.79,2.97-27.87,9.54-19.18,1.08Z"></path><path class="cls-2" d="M1197.34,1150.52s10.47-3.26,19.06-.98c4.78,3-27.65,9.38-19.06,.98Z"></path><path class="cls-2" d="M1191.7,1166.52s9.05-2.7,16.57-.53c4.21,2.74-23.89,7.83-16.57,.53Z"></path></g><g><path class="cls-3" d="M867,1323.76s-87.14,7.53-94.42,25.33c-11.64,28.44,115.53,35.34,133.1,21.17,16.86-13.61,5.74-36.6,5.74-36.6,0,0-21.81,11.96-44.41-9.9Z"></path><path class="cls-2" d="M859.58,1327.05s7.64,7.99,9.47,16.72c-.55,5.61-20.9-20.76-9.47-16.72Z"></path><path class="cls-2" d="M841.49,1330.32s7.55,7.94,9.32,16.66c-.57,5.61-20.66-20.64-9.32-16.66Z"></path><path class="cls-2" d="M824.64,1332.34s6.43,6.92,7.81,14.62c-.59,4.99-17.6-17.96-7.81-14.62Z"></path></g><path class="cls-26" d="M1498.01,122.87l56.05,178.13s-52.8,54.43-88.96,67.62c-23.68,8.63-38.51-232.26-38.51-232.26l71.42-13.5Z"></path><path class="cls-7" d="M1536.78,239.78s101.45,11.79,119.81,229.42c-4.48,203.94-18,375.46-64.32,418.22-19.07,20.46-72.31,56.76-192.03-19.28-89.49-56.84-78.77-58.76-78.26-109.41,.05-4.81,17.67-405.95,118.64-470.91,.97,8.13,47.89,65.67,96.15-48.03Z"></path><path class="cls-27" d="M1466.24,61.04c5.68,3.23,83.26,38.86,54.58,141.86-4.04,23.91-96.8,118.9-123.5,1.98-22.19-97.15,5.91-179.66,68.92-143.84Z"></path><path class="cls-4" d="M1487.7,160.37l-11.77-7.73s7.35-61.35-31.56-49.51c-47.31,14.41-82.87,7.66-96.14-38.27-4.62-20.43,25.96-4.21,25.96-4.21,0,0-38.28-18.42-19.55-53.74,17.46-18.76,20.03,5.88,50.62,12.65,46.53,10.3,87.58-15.11,120.62,34.23,33.04,49.35,28.59,92.64-6,152.54-4.09-10.54-9.3-31.91-9.3-31.91,0,0,12.13-44.1-15.27-41.24-10.35,1.08-7.62,27.19-7.62,27.19Z"></path><path class="cls-22" d="M1563.87,311.7c-3.04-17.75-16.57-40.64-31.17-30.57-16.32,11.27-35.35,35.39-39.24,62.23-4.25,29.22-.08,90.06-73.83,216.01-50.72,86.6-102.87,124.03-140.02,144.92-1.34,.44-20.88,6.86-22.13,7.28-10.04-1.2-21.89-4.48-33.15,.04-14.59,5.86-48.09,30-48.08,33.4,.01,3.4,47.41,9.55,65.76,1.67,2.54-1.09,7.26-1.32,9.55-2.91,.71,2.64,0,0,1.12,2.62-9.32,6.61-13.15,4.26-13.15,4.26-1.74-.57-8.5-4.69-19.42,3.54-11.28,8.51,13.12,11.03,22.49,10.74,7.19-.23,22.73-2.68,29.13-7.12v.29c.89-.72,1.77-1.42,2.64-2.1,1.78-.13,5.13-1.14,8.89-2.34,5.64-1.43,11.18-2.97,16.65-4.61,.03,0,.06,0,.08,0v-.02c179.39-53.72,265.8-216.51,282.32-301.23,7.82-40.09-11.67-96.62-18.45-136.11Z"></path><path class="cls-5" d="M1594.71,284.85c-10.93-10.6-39.08-19.48-53.47-14.87-13.36,4.27-30.27,15.83-44.54,44.97-16.13,32.04-43.88,141.31-43.88,141.31,0,0,58.34,45.23,145.64,62.38,11.47-18.55,46.96-184.61-3.76-233.79Z"></path><g><path class="cls-25" d="M977.71,768.49l324.27,2.75c5.6,.05,10.24-4.34,10.48-9.93l.29-6.45c.26-5.88-4.42-10.81-10.3-10.86l-324.28-2.75c-5.6-.05-10.23,4.35-10.48,9.94l-.29,6.44c-.26,5.89,4.41,10.82,10.31,10.87Z"></path><path class="cls-23" d="M1153.31,747.36l-115.73-230.56c-2.79-5.55-9.37-9.27-16.97-9.58l-149.9-6.11c-14.51-.59-25.4,10.93-20.48,21.69l108.09,236.36c2.77,6.05,9.97,10.03,18.16,10.05l157.54,.3c14.38,.03,24.56-11.65,19.29-22.15Z"></path></g><path class="cls-6" d="M1011.14,631.37c4.26,12.35,.28,24.93-8.88,28.09-9.16,3.16-20.04-4.3-24.3-16.65-4.26-12.35-.28-24.93,8.88-28.09,9.16-3.16,20.04,4.3,24.3,16.65Z"></path></g></svg>